<?xml version="1.0" encoding="UTF-8" standalone="no"?>
<!DOCTYPE svg PUBLIC "-//W3C//DTD SVG 1.1//EN" "http://www.w3.org/Graphics/SVG/1.1/DTD/svg11.dtd">
<svg xmlns="http://www.w3.org/2000/svg" version="1.1" viewBox="0.00 0.00 90.00 90.00">
<g stroke-width="2.00" fill="none" stroke-linecap="butt">
<path stroke="#7d7d79" vector-effect="non-scaling-stroke" d="
  M 52.68 20.99
  Q 52.49 20.86 52.26 20.86
  L 39.49 20.86
  Q 38.55 20.86 38.04 21.66
  L 37.59 22.37
  Q 37.04 23.24 38.06 23.22
  L 54.35 22.88
  Q 54.50 22.87 54.41 22.74
  Q 53.60 21.62 52.68 20.99"
/>
<path stroke="#464d4f" vector-effect="non-scaling-stroke" d="
  M 21.48 26.47
  L 21.42 41.21
  A 2.02 2.00 -71.6 0 0 22.21 42.81
  L 23.76 43.98
  Q 24.50 44.55 24.50 43.62
  L 24.48 27.31"
/>
<path stroke="#7d7d79" vector-effect="non-scaling-stroke" d="
  M 24.48 27.31
  L 27.82 23.99
  Q 28.23 23.59 27.67 23.49
  Q 24.22 22.87 21.48 26.47"
/>
<path stroke="#c2cac7" vector-effect="non-scaling-stroke" d="
  M 24.48 27.31
  L 21.48 26.47"
/>
<path stroke="#464d4f" vector-effect="non-scaling-stroke" d="
  M 66.58 27.11
  L 66.59 43.78
  Q 66.59 44.73 67.31 44.10
  L 69.05 42.60
  Q 69.75 41.99 69.75 41.05
  L 69.75 26.65"
/>
<path stroke="#7d7d79" vector-effect="non-scaling-stroke" d="
  M 69.75 26.65
  L 66.69 23.70
  Q 66.50 23.52 66.24 23.51
  L 63.22 23.46
  A 0.15 0.15 0.0 0 0 63.12 23.72
  L 66.58 27.11"
/>
<path stroke="#c2cac7" vector-effect="non-scaling-stroke" d="
  M 69.75 26.65
  L 66.58 27.11"
/>
<path stroke="#464d4f" vector-effect="non-scaling-stroke" d="
  M 30.89 28.62
  L 35.20 29.32
  Q 35.66 29.40 36.05 29.66
  L 40.49 32.68
  Q 41.05 33.07 41.62 32.69
  L 42.80 31.90
  Q 43.40 31.49 42.80 31.08
  L 40.65 29.62
  Q 39.77 29.02 40.84 29.04
  L 51.26 29.28"
/>
<path stroke="#7d7d79" vector-effect="non-scaling-stroke" d="
  M 51.26 29.28
  L 43.89 34.51"
/>
<path stroke="#464d4f" vector-effect="non-scaling-stroke" d="
  M 43.89 34.51
  L 31.65 43.04
  A 1.31 1.30 73.4 0 0 31.08 44.10
  L 31.04 46.03
  Q 31.03 46.70 31.59 46.32
  L 46.25 36.07"
/>
<path stroke="#7d7d79" vector-effect="non-scaling-stroke" d="
  M 46.25 36.07
  L 53.57 30.93"
/>
<path stroke="#464d4f" vector-effect="non-scaling-stroke" d="
  M 53.57 30.93
  Q 55.55 29.05 57.25 29.10
  Q 60.10 29.18 61.14 27.79"
/>
<path stroke="#7d7d79" vector-effect="non-scaling-stroke" d="
  M 61.14 27.79
  Q 61.41 27.79 61.68 27.79"
/>
<path stroke="#464d4f" vector-effect="non-scaling-stroke" d="
  M 61.68 27.79
  L 61.73 47.38
  Q 61.73 47.99 62.22 47.65
  L 63.23 46.96
  Q 63.82 46.56 63.82 45.85
  L 63.77 26.24"
/>
<path stroke="#7d7d79" vector-effect="non-scaling-stroke" d="
  M 63.77 26.24
  Q 63.65 25.62 63.46 25.62
  Q 45.53 25.65 27.75 25.62
  A 0.63 0.62 0.0 0 0 27.12 26.24
  L 27.13 45.31
  Q 27.13 45.89 27.57 46.26
  L 29.20 47.61
  Q 29.52 47.87 29.52 47.46
  L 29.49 28.28
  Q 29.49 27.74 30.00 27.93
  Q 30.47 28.10 30.89 28.62"
/>
<path stroke="#c2cac7" vector-effect="non-scaling-stroke" d="
  M 63.77 26.24
  L 61.68 27.79"
/>
<path stroke="#c2cac7" vector-effect="non-scaling-stroke" d="
  M 61.14 27.79
  Q 41.14 27.55 31.50 27.71
  Q 30.90 27.72 30.89 28.62"
/>
<path stroke="#c2cac7" vector-effect="non-scaling-stroke" d="
  M 53.57 30.93
  L 51.26 29.28"
/>
<path stroke="#c2cac7" vector-effect="non-scaling-stroke" d="
  M 46.25 36.07
  Q 44.82 35.47 43.89 34.51"
/>
<path stroke="#464d4f" vector-effect="non-scaling-stroke" d="
  M 35.01 35.91
  A 0.45 0.45 0.0 0 0 35.56 35.98
  L 37.35 34.89
  A 0.45 0.45 0.0 0 0 37.36 34.13
  L 34.62 32.36
  A 0.45 0.45 0.0 0 0 34.03 32.45
  L 33.15 33.46
  A 0.45 0.45 0.0 0 0 33.18 34.08
  L 35.01 35.91"
/>
<path stroke="#464d4f" vector-effect="non-scaling-stroke" d="
  M 49.40 37.34
  L 40.48 43.55
  A 0.63 0.63 0.0 0 0 40.58 44.63
  L 41.70 45.15
  Q 42.34 45.44 42.91 45.04
  L 51.34 39.05"
/>
<path stroke="#7d7d79" vector-effect="non-scaling-stroke" d="
  M 51.34 39.05
  L 57.84 34.65
  A 0.96 0.95 -28.4 0 0 58.19 33.49
  L 58.01 33.06
  Q 57.45 31.74 56.28 32.56
  L 49.40 37.34"
/>
<path stroke="#c2cac7" vector-effect="non-scaling-stroke" d="
  M 51.34 39.05
  L 49.40 37.34"
/>
<path stroke="#464d4f" vector-effect="non-scaling-stroke" d="
  M 59.47 48.86
  A 0.34 0.34 0.0 0 0 60.00 48.58
  L 60.00 46.11
  A 0.34 0.34 0.0 0 0 59.85 45.83
  L 53.33 41.45
  A 0.34 0.34 0.0 0 0 52.96 41.45
  L 51.14 42.61
  A 0.34 0.34 0.0 0 0 51.14 43.18
  L 59.47 48.86"
/>
<path stroke="#7d7d79" vector-effect="non-scaling-stroke" d="
  M 40.34 47.25
  A 0.91 0.88 66.3 0 0 40.12 47.84
  L 40.19 66.65
  Q 40.20 67.50 40.88 67.99
  L 41.82 68.67
  Q 42.62 69.24 42.62 68.26
  L 42.64 46.24
  Q 42.64 45.77 42.20 45.94
  Q 41.09 46.36 40.34 47.25"
/>
<path stroke="#464d4f" vector-effect="non-scaling-stroke" d="
  M 50.10 46.28
  L 50.10 68.74
  A 0.10 0.10 0.0 0 0 50.20 68.84
  L 50.27 68.84
  A 2.81 2.25 90.0 0 0 52.52 66.03
  L 52.52 48.99
  A 2.81 2.25 90.0 0 0 50.27 46.18
  L 50.20 46.18
  A 0.10 0.10 0.0 0 0 50.10 46.28"
/>
<path stroke="#464d4f" vector-effect="non-scaling-stroke" d="
  M 47.6690 48.7423
  A 1.25 1.25 0.0 0 0 46.4212 47.4901
  L 46.3612 47.4900
  A 1.25 1.25 0.0 0 0 45.1090 48.7378
  L 45.0710 70.4977
  A 1.25 1.25 0.0 0 0 46.3188 71.7499
  L 46.3788 71.7500
  A 1.25 1.25 0.0 0 0 47.6310 70.5022
  L 47.6690 48.7423"
/>
<path stroke="#7d7d79" vector-effect="non-scaling-stroke" d="
  M 32.97 57.47
  A 1.87 1.87 0.0 0 0 31.10 55.60
  A 1.87 1.87 0.0 0 0 29.23 57.47
  A 1.87 1.87 0.0 0 0 31.10 59.34
  A 1.87 1.87 0.0 0 0 32.97 57.47"
/>
<path stroke="#7d7d79" vector-effect="non-scaling-stroke" d="
  M 62.53 57.48
  A 1.86 1.86 0.0 0 0 60.67 55.62
  A 1.86 1.86 0.0 0 0 58.81 57.48
  A 1.86 1.86 0.0 0 0 60.67 59.34
  A 1.86 1.86 0.0 0 0 62.53 57.48"
/>
</g>
<path fill="#000000" d="
  M 8.54 0.00
  L 81.30 0.00
  Q 88.45 1.57 90.00 8.54
  L 90.00 81.30
  Q 88.43 88.45 81.46 90.00
  L 8.70 90.00
  Q 1.54 88.43 0.00 81.46
  L 0.00 8.45
  Q 1.79 1.47 8.54 0.00
  Z
  M 52.68 20.99
  Q 52.49 20.86 52.26 20.86
  L 39.49 20.86
  Q 38.55 20.86 38.04 21.66
  L 37.59 22.37
  Q 37.04 23.24 38.06 23.22
  L 54.35 22.88
  Q 54.50 22.87 54.41 22.74
  Q 53.60 21.62 52.68 20.99
  Z
  M 21.48 26.47
  L 21.42 41.21
  A 2.02 2.00 -71.6 0 0 22.21 42.81
  L 23.76 43.98
  Q 24.50 44.55 24.50 43.62
  L 24.48 27.31
  L 27.82 23.99
  Q 28.23 23.59 27.67 23.49
  Q 24.22 22.87 21.48 26.47
  Z
  M 66.58 27.11
  L 66.59 43.78
  Q 66.59 44.73 67.31 44.10
  L 69.05 42.60
  Q 69.75 41.99 69.75 41.05
  L 69.75 26.65
  L 66.69 23.70
  Q 66.50 23.52 66.24 23.51
  L 63.22 23.46
  A 0.15 0.15 0.0 0 0 63.12 23.72
  L 66.58 27.11
  Z
  M 30.89 28.62
  L 35.20 29.32
  Q 35.66 29.40 36.05 29.66
  L 40.49 32.68
  Q 41.05 33.07 41.62 32.69
  L 42.80 31.90
  Q 43.40 31.49 42.80 31.08
  L 40.65 29.62
  Q 39.77 29.02 40.84 29.04
  L 51.26 29.28
  L 43.89 34.51
  L 31.65 43.04
  A 1.31 1.30 73.4 0 0 31.08 44.10
  L 31.04 46.03
  Q 31.03 46.70 31.59 46.32
  L 46.25 36.07
  L 53.57 30.93
  Q 55.55 29.05 57.25 29.10
  Q 60.10 29.18 61.14 27.79
  Q 61.41 27.79 61.68 27.79
  L 61.73 47.38
  Q 61.73 47.99 62.22 47.65
  L 63.23 46.96
  Q 63.82 46.56 63.82 45.85
  L 63.77 26.24
  Q 63.65 25.62 63.46 25.62
  Q 45.53 25.65 27.75 25.62
  A 0.63 0.62 0.0 0 0 27.12 26.24
  L 27.13 45.31
  Q 27.13 45.89 27.57 46.26
  L 29.20 47.61
  Q 29.52 47.87 29.52 47.46
  L 29.49 28.28
  Q 29.49 27.74 30.00 27.93
  Q 30.47 28.10 30.89 28.62
  Z
  M 35.01 35.91
  A 0.45 0.45 0.0 0 0 35.56 35.98
  L 37.35 34.89
  A 0.45 0.45 0.0 0 0 37.36 34.13
  L 34.62 32.36
  A 0.45 0.45 0.0 0 0 34.03 32.45
  L 33.15 33.46
  A 0.45 0.45 0.0 0 0 33.18 34.08
  L 35.01 35.91
  Z
  M 49.40 37.34
  L 40.48 43.55
  A 0.63 0.63 0.0 0 0 40.58 44.63
  L 41.70 45.15
  Q 42.34 45.44 42.91 45.04
  L 51.34 39.05
  L 57.84 34.65
  A 0.96 0.95 -28.4 0 0 58.19 33.49
  L 58.01 33.06
  Q 57.45 31.74 56.28 32.56
  L 49.40 37.34
  Z
  M 59.47 48.86
  A 0.34 0.34 0.0 0 0 60.00 48.58
  L 60.00 46.11
  A 0.34 0.34 0.0 0 0 59.85 45.83
  L 53.33 41.45
  A 0.34 0.34 0.0 0 0 52.96 41.45
  L 51.14 42.61
  A 0.34 0.34 0.0 0 0 51.14 43.18
  L 59.47 48.86
  Z
  M 40.34 47.25
  A 0.91 0.88 66.3 0 0 40.12 47.84
  L 40.19 66.65
  Q 40.20 67.50 40.88 67.99
  L 41.82 68.67
  Q 42.62 69.24 42.62 68.26
  L 42.64 46.24
  Q 42.64 45.77 42.20 45.94
  Q 41.09 46.36 40.34 47.25
  Z
  M 50.10 46.28
  L 50.10 68.74
  A 0.10 0.10 0.0 0 0 50.20 68.84
  L 50.27 68.84
  A 2.81 2.25 90.0 0 0 52.52 66.03
  L 52.52 48.99
  A 2.81 2.25 90.0 0 0 50.27 46.18
  L 50.20 46.18
  A 0.10 0.10 0.0 0 0 50.10 46.28
  Z
  M 47.6690 48.7423
  A 1.25 1.25 0.0 0 0 46.4212 47.4901
  L 46.3612 47.4900
  A 1.25 1.25 0.0 0 0 45.1090 48.7378
  L 45.0710 70.4977
  A 1.25 1.25 0.0 0 0 46.3188 71.7499
  L 46.3788 71.7500
  A 1.25 1.25 0.0 0 0 47.6310 70.5022
  L 47.6690 48.7423
  Z
  M 32.97 57.47
  A 1.87 1.87 0.0 0 0 31.10 55.60
  A 1.87 1.87 0.0 0 0 29.23 57.47
  A 1.87 1.87 0.0 0 0 31.10 59.34
  A 1.87 1.87 0.0 0 0 32.97 57.47
  Z
  M 62.53 57.48
  A 1.86 1.86 0.0 0 0 60.67 55.62
  A 1.86 1.86 0.0 0 0 58.81 57.48
  A 1.86 1.86 0.0 0 0 60.67 59.34
  A 1.86 1.86 0.0 0 0 62.53 57.48
  Z"
/>
<path fill="#f9f9f1" d="
  M 52.68 20.99
  Q 53.60 21.62 54.41 22.74
  Q 54.50 22.87 54.35 22.88
  L 38.06 23.22
  Q 37.04 23.24 37.59 22.37
  L 38.04 21.66
  Q 38.55 20.86 39.49 20.86
  L 52.26 20.86
  Q 52.49 20.86 52.68 20.99
  Z"
/>
<path fill="#f9f9f1" d="
  M 24.48 27.31
  L 21.48 26.47
  Q 24.22 22.87 27.67 23.49
  Q 28.23 23.59 27.82 23.99
  L 24.48 27.31
  Z"
/>
<path fill="#f9f9f1" d="
  M 69.75 26.65
  L 66.58 27.11
  L 63.12 23.72
  A 0.15 0.15 0.0 0 1 63.22 23.46
  L 66.24 23.51
  Q 66.50 23.52 66.69 23.70
  L 69.75 26.65
  Z"
/>
<path fill="#f9f9f1" d="
  M 63.77 26.24
  L 61.68 27.79
  Q 61.41 27.79 61.14 27.79
  Q 41.14 27.55 31.50 27.71
  Q 30.90 27.72 30.89 28.62
  Q 30.47 28.10 30.00 27.93
  Q 29.49 27.74 29.49 28.28
  L 29.52 47.46
  Q 29.52 47.87 29.20 47.61
  L 27.57 46.26
  Q 27.13 45.89 27.13 45.31
  L 27.12 26.24
  A 0.63 0.62 0.0 0 1 27.75 25.62
  Q 45.53 25.65 63.46 25.62
  Q 63.65 25.62 63.77 26.24
  Z"
/>
<path fill="#8b9a9d" d="
  M 21.48 26.47
  L 24.48 27.31
  L 24.50 43.62
  Q 24.50 44.55 23.76 43.98
  L 22.21 42.81
  A 2.02 2.00 -71.6 0 1 21.42 41.21
  L 21.48 26.47
  Z"
/>
<path fill="#8b9a9d" d="
  M 63.77 26.24
  L 63.82 45.85
  Q 63.82 46.56 63.23 46.96
  L 62.22 47.65
  Q 61.73 47.99 61.73 47.38
  L 61.68 27.79
  L 63.77 26.24
  Z"
/>
<path fill="#8b9a9d" d="
  M 69.75 26.65
  L 69.75 41.05
  Q 69.75 41.99 69.05 42.60
  L 67.31 44.10
  Q 66.59 44.73 66.59 43.78
  L 66.58 27.11
  L 69.75 26.65
  Z"
/>
<path fill="#8b9a9d" d="
  M 61.14 27.79
  Q 60.10 29.18 57.25 29.10
  Q 55.55 29.05 53.57 30.93
  L 51.26 29.28
  L 40.84 29.04
  Q 39.77 29.02 40.65 29.62
  L 42.80 31.08
  Q 43.40 31.49 42.80 31.90
  L 41.62 32.69
  Q 41.05 33.07 40.49 32.68
  L 36.05 29.66
  Q 35.66 29.40 35.20 29.32
  L 30.89 28.62
  Q 30.90 27.72 31.50 27.71
  Q 41.14 27.55 61.14 27.79
  Z"
/>
<path fill="#f9f9f1" d="
  M 53.57 30.93
  L 46.25 36.07
  Q 44.82 35.47 43.89 34.51
  L 51.26 29.28
  L 53.57 30.93
  Z"
/>
<path fill="#8b9a9d" d="
  M 35.01 35.91
  L 33.18 34.08
  A 0.45 0.45 0.0 0 1 33.15 33.46
  L 34.03 32.45
  A 0.45 0.45 0.0 0 1 34.62 32.36
  L 37.36 34.13
  A 0.45 0.45 0.0 0 1 37.35 34.89
  L 35.56 35.98
  A 0.45 0.45 0.0 0 1 35.01 35.91
  Z"
/>
<path fill="#f9f9f1" d="
  M 51.34 39.05
  L 49.40 37.34
  L 56.28 32.56
  Q 57.45 31.74 58.01 33.06
  L 58.19 33.49
  A 0.96 0.95 -28.4 0 1 57.84 34.65
  L 51.34 39.05
  Z"
/>
<path fill="#8b9a9d" d="
  M 43.89 34.51
  Q 44.82 35.47 46.25 36.07
  L 31.59 46.32
  Q 31.03 46.70 31.04 46.03
  L 31.08 44.10
  A 1.31 1.30 73.4 0 1 31.65 43.04
  L 43.89 34.51
  Z"
/>
<path fill="#8b9a9d" d="
  M 49.40 37.34
  L 51.34 39.05
  L 42.91 45.04
  Q 42.34 45.44 41.70 45.15
  L 40.58 44.63
  A 0.63 0.63 0.0 0 1 40.48 43.55
  L 49.40 37.34
  Z"
/>
<path fill="#8b9a9d" d="
  M 59.47 48.86
  L 51.14 43.18
  A 0.34 0.34 0.0 0 1 51.14 42.61
  L 52.96 41.45
  A 0.34 0.34 0.0 0 1 53.33 41.45
  L 59.85 45.83
  A 0.34 0.34 0.0 0 1 60.00 46.11
  L 60.00 48.58
  A 0.34 0.34 0.0 0 1 59.47 48.86
  Z"
/>
<path fill="#f9f9f1" d="
  M 40.34 47.25
  Q 41.09 46.36 42.20 45.94
  Q 42.64 45.77 42.64 46.24
  L 42.62 68.26
  Q 42.62 69.24 41.82 68.67
  L 40.88 67.99
  Q 40.20 67.50 40.19 66.65
  L 40.12 47.84
  A 0.91 0.88 66.3 0 1 40.34 47.25
  Z"
/>
<path fill="#8b9a9d" d="
  M 50.10 46.28
  A 0.10 0.10 0.0 0 1 50.20 46.18
  L 50.27 46.18
  A 2.81 2.25 90.0 0 1 52.52 48.99
  L 52.52 66.03
  A 2.81 2.25 -90.0 0 1 50.27 68.84
  L 50.20 68.84
  A 0.10 0.10 0.0 0 1 50.10 68.74
  L 50.10 46.28
  Z"
/>
<rect fill="#8b9a9d" x="-1.28" y="-12.13" transform="translate(46.37,59.62) rotate(0.1)" width="2.56" height="24.26" rx="1.25"/>
<circle fill="#f9f9f1" cx="31.10" cy="57.47" r="1.87"/>
<circle fill="#f9f9f1" cx="60.67" cy="57.48" r="1.86"/>
</svg>
